<svg xmlns="http://www.w3.org/2000/svg" width="1600" height="1000" fill="none" viewBox="0 0 1600 1000"><defs><linearGradient id="bg" x1="210" x2="1327" y1="58" y2="998" gradientUnits="userSpaceOnUse"><stop stop-color="#08111E"/><stop offset=".56" stop-color="#0C1726"/><stop offset="1" stop-color="#111C2E"/></linearGradient><linearGradient id="card" x1="232" x2="960" y1="172" y2="1028" gradientUnits="userSpaceOnUse"><stop stop-color="rgba(255,255,255,0.15)"/><stop offset="1" stop-color="rgba(255,255,255,0.03)"/></linearGradient><linearGradient id="line" x1="284" x2="1284" y1="0" y2="0" gradientUnits="userSpaceOnUse"><stop stop-color="#60A5FA"/><stop offset=".5" stop-color="#7C3AED"/><stop offset="1" stop-color="#2DD4BF"/></linearGradient><filter id="blur" width="1600" height="1000" x="0" y="0" color-interpolation-filters="sRGB" filterUnits="userSpaceOnUse"><feGaussianBlur stdDeviation="60"/></filter></defs><rect width="1600" height="1000" fill="url(#bg)" rx="52"/><g filter="url(#blur)" opacity=".9"><circle cx="1318" cy="126" r="210" fill="#1D4ED8"/><circle cx="1124" cy="758" r="240" fill="#7C3AED"/><circle cx="338" cy="844" r="220" fill="#0F766E"/></g><rect width="1492" height="892" x="54" y="54" fill="rgba(255,255,255,0.04)" stroke="rgba(255,255,255,0.08)" rx="42"/><rect width="276" height="784" x="104" y="108" fill="rgba(7,14,24,0.9)" stroke="rgba(255,255,255,0.06)" rx="30"/><rect width="1016" height="152" x="430" y="108" fill="rgba(7,14,24,0.72)" stroke="rgba(255,255,255,0.06)" rx="30"/><rect width="650" height="594" x="430" y="298" fill="rgba(7,14,24,0.74)" stroke="rgba(255,255,255,0.06)" rx="32"/><rect width="328" height="278" x="1118" y="298" fill="rgba(7,14,24,0.74)" stroke="rgba(255,255,255,0.06)" rx="32"/><rect width="328" height="278" x="1118" y="614" fill="rgba(7,14,24,0.74)" stroke="rgba(255,255,255,0.06)" rx="32"/><text x="152" y="174" fill="#E5EEF8" font-family="Manrope, Arial, sans-serif" font-size="34" font-weight="700">Aether Studio</text><text x="152" y="218" fill="#7F92AD" font-family="Manrope, Arial, sans-serif" font-size="20">Realtime operating dashboard</text><text x="484" y="174" fill="#F4F7FB" font-family="Manrope, Arial, sans-serif" font-size="48" font-weight="700">Cinematic system intelligence.</text><text x="484" y="214" fill="#8797B0" font-family="Manrope, Arial, sans-serif" font-size="22">Observe performance, security, and brand momentum inside one fluid interface.</text><rect width="560" height="10" x="484" y="700" fill="rgba(255,255,255,0.06)" rx="5"/><rect width="404" height="10" x="484" y="700" fill="url(#line)" rx="5"/><g opacity=".95"><path stroke="url(#line)" stroke-linecap="round" stroke-width="10" d="M484 616C530 562 576 528 622 514C668 500 714 518 760 486C806 454 852 364 898 330C944 296 990 310 1036 250"/><path stroke="rgba(255,255,255,0.16)" stroke-linecap="round" stroke-width="2" d="M484 648C530 594 576 560 622 546C668 532 714 550 760 518C806 486 852 396 898 362C944 328 990 342 1036 282"/></g><g fill="#D8E3F2" font-family="Manrope, Arial, sans-serif"><text x="484" y="376" font-size="22">Live trajectory</text><text x="484" y="418" font-size="72" font-weight="800">84.6%</text><text x="486" y="460" fill="#67E8F9" font-size="22">+12.4% this quarter</text><text x="1160" y="376" font-size="22">Threat surface</text><text x="1160" y="426" font-size="56" font-weight="800">07</text><text x="1160" y="468" fill="#C4B5FD" font-size="20">Actively resolved</text><text x="1160" y="692" font-size="22">Brand glow</text><text x="1160" y="742" font-size="56" font-weight="800">19.4M</text><text x="1160" y="784" fill="#5EEAD4" font-size="20">Immersive impressions</text></g><g opacity=".9"><rect width="180" height="54" x="152" y="284" fill="rgba(96,165,250,0.18)" rx="27"/><text x="191" y="319" fill="#B7D5FF" font-family="Manrope, Arial, sans-serif" font-size="20">Overview</text><text x="152" y="402" fill="#70839E" font-family="Manrope, Arial, sans-serif" font-size="20">Motion</text><text x="152" y="462" fill="#70839E" font-family="Manrope, Arial, sans-serif" font-size="20">Signals</text><text x="152" y="522" fill="#70839E" font-family="Manrope, Arial, sans-serif" font-size="20">Launches</text><text x="152" y="582" fill="#70839E" font-family="Manrope, Arial, sans-serif" font-size="20">Archive</text></g></svg>