<svg width="1600" height="1000" viewBox="0 0 1600 1000" fill="none" xmlns="http://www.w3.org/2000/svg">
  <defs>
    <linearGradient id="bg" x1="210" y1="58" x2="1327" y2="998" gradientUnits="userSpaceOnUse">
      <stop stop-color="#08111E"/>
      <stop offset="0.56" stop-color="#0C1726"/>
      <stop offset="1" stop-color="#111C2E"/>
    </linearGradient>
    <linearGradient id="card" x1="232" y1="172" x2="960" y2="1028" gradientUnits="userSpaceOnUse">
      <stop stop-color="rgba(255,255,255,0.15)"/>
      <stop offset="1" stop-color="rgba(255,255,255,0.03)"/>
    </linearGradient>
    <linearGradient id="line" x1="284" y1="0" x2="1284" y2="0" gradientUnits="userSpaceOnUse">
      <stop stop-color="#60A5FA"/>
      <stop offset="0.5" stop-color="#7C3AED"/>
      <stop offset="1" stop-color="#2DD4BF"/>
    </linearGradient>
    <filter id="blur" x="0" y="0" width="1600" height="1000" filterUnits="userSpaceOnUse" color-interpolation-filters="sRGB">
      <feGaussianBlur stdDeviation="60"/>
    </filter>
  </defs>
  <rect width="1600" height="1000" rx="52" fill="url(#bg)"/>
  <g filter="url(#blur)" opacity="0.9">
    <circle cx="1318" cy="126" r="210" fill="#1D4ED8"/>
    <circle cx="1124" cy="758" r="240" fill="#7C3AED"/>
    <circle cx="338" cy="844" r="220" fill="#0F766E"/>
  </g>
  <rect x="54" y="54" width="1492" height="892" rx="42" fill="rgba(255,255,255,0.04)" stroke="rgba(255,255,255,0.08)"/>
  <rect x="104" y="108" width="276" height="784" rx="30" fill="rgba(7,14,24,0.9)" stroke="rgba(255,255,255,0.06)"/>
  <rect x="430" y="108" width="1016" height="152" rx="30" fill="rgba(7,14,24,0.72)" stroke="rgba(255,255,255,0.06)"/>
  <rect x="430" y="298" width="650" height="594" rx="32" fill="rgba(7,14,24,0.74)" stroke="rgba(255,255,255,0.06)"/>
  <rect x="1118" y="298" width="328" height="278" rx="32" fill="rgba(7,14,24,0.74)" stroke="rgba(255,255,255,0.06)"/>
  <rect x="1118" y="614" width="328" height="278" rx="32" fill="rgba(7,14,24,0.74)" stroke="rgba(255,255,255,0.06)"/>
  <text x="152" y="174" fill="#E5EEF8" font-size="34" font-family="Manrope, Arial, sans-serif" font-weight="700">Aether Studio</text>
  <text x="152" y="218" fill="#7F92AD" font-size="20" font-family="Manrope, Arial, sans-serif">Realtime operating dashboard</text>
  <text x="484" y="174" fill="#F4F7FB" font-size="48" font-family="Manrope, Arial, sans-serif" font-weight="700">Cinematic system intelligence.</text>
  <text x="484" y="214" fill="#8797B0" font-size="22" font-family="Manrope, Arial, sans-serif">Observe performance, security, and brand momentum inside one fluid interface.</text>
  <rect x="484" y="700" width="560" height="10" rx="5" fill="rgba(255,255,255,0.06)"/>
  <rect x="484" y="700" width="404" height="10" rx="5" fill="url(#line)"/>
  <g opacity="0.95">
    <path d="M484 616C530 562 576 528 622 514C668 500 714 518 760 486C806 454 852 364 898 330C944 296 990 310 1036 250" stroke="url(#line)" stroke-width="10" stroke-linecap="round"/>
    <path d="M484 648C530 594 576 560 622 546C668 532 714 550 760 518C806 486 852 396 898 362C944 328 990 342 1036 282" stroke="rgba(255,255,255,0.16)" stroke-width="2" stroke-linecap="round"/>
  </g>
  <g fill="#D8E3F2" font-family="Manrope, Arial, sans-serif">
    <text x="484" y="376" font-size="22">Live trajectory</text>
    <text x="484" y="418" font-size="72" font-weight="800">84.6%</text>
    <text x="486" y="460" fill="#67E8F9" font-size="22">+12.4% this quarter</text>
    <text x="1160" y="376" font-size="22">Threat surface</text>
    <text x="1160" y="426" font-size="56" font-weight="800">07</text>
    <text x="1160" y="468" fill="#C4B5FD" font-size="20">Actively resolved</text>
    <text x="1160" y="692" font-size="22">Brand glow</text>
    <text x="1160" y="742" font-size="56" font-weight="800">19.4M</text>
    <text x="1160" y="784" fill="#5EEAD4" font-size="20">Immersive impressions</text>
  </g>
  <g opacity="0.9">
    <rect x="152" y="284" width="180" height="54" rx="27" fill="rgba(96,165,250,0.18)"/>
    <text x="191" y="319" fill="#B7D5FF" font-size="20" font-family="Manrope, Arial, sans-serif">Overview</text>
    <text x="152" y="402" fill="#70839E" font-size="20" font-family="Manrope, Arial, sans-serif">Motion</text>
    <text x="152" y="462" fill="#70839E" font-size="20" font-family="Manrope, Arial, sans-serif">Signals</text>
    <text x="152" y="522" fill="#70839E" font-size="20" font-family="Manrope, Arial, sans-serif">Launches</text>
    <text x="152" y="582" fill="#70839E" font-size="20" font-family="Manrope, Arial, sans-serif">Archive</text>
  </g>
</svg>
