<svg xmlns="http://www.w3.org/2000/svg" width="1600" height="1000" fill="none" viewBox="0 0 1600 1000"><defs><linearGradient id="bg" x1="118" x2="1468" y1="78" y2="930" gradientUnits="userSpaceOnUse"><stop stop-color="#120B15"/><stop offset=".5" stop-color="#19101D"/><stop offset="1" stop-color="#0D1117"/></linearGradient><radialGradient id="glowA" cx="0" cy="0" r="1" gradientTransform="translate(1126 246) rotate(113.512) scale(424.311 627.76)" gradientUnits="userSpaceOnUse"><stop stop-color="#F97316"/><stop offset="1" stop-color="#F97316" stop-opacity="0"/></radialGradient><radialGradient id="glowB" cx="0" cy="0" r="1" gradientTransform="translate(392 802) rotate(25.2844) scale(470.212 386.55)" gradientUnits="userSpaceOnUse"><stop stop-color="#FB7185"/><stop offset="1" stop-color="#FB7185" stop-opacity="0"/></radialGradient></defs><rect width="1600" height="1000" fill="url(#bg)" rx="52"/><circle cx="1138" cy="262" r="300" fill="url(#glowA)"/><circle cx="398" cy="786" r="270" fill="url(#glowB)"/><rect width="1492" height="892" x="54" y="54" fill="rgba(255,255,255,0.04)" stroke="rgba(255,255,255,0.08)" rx="42"/><text x="132" y="172" fill="#FFE7D4" font-family="Manrope, Arial, sans-serif" font-size="24" letter-spacing="6">LUXE SYSTEMS</text><text x="132" y="300" fill="#FFF7F1" font-family="Instrument Serif, Georgia, serif" font-size="106">Reveal the</text><text x="132" y="394" fill="#FFF7F1" font-family="Manrope, Arial, sans-serif" font-size="106" font-weight="800">future in motion.</text><text x="136" y="462" fill="#C6B6A9" font-family="Manrope, Arial, sans-serif" font-size="28">A premium landing experience for high-end launches, immersive demos,</text><text x="136" y="504" fill="#C6B6A9" font-family="Manrope, Arial, sans-serif" font-size="28">and cinematic interfaces designed for modern product teams.</text><rect width="196" height="62" x="136" y="576" fill="#FFF3E8" rx="31"/><rect width="186" height="62" x="352" y="576" fill="rgba(255,255,255,0.08)" stroke="rgba(255,255,255,0.16)" rx="31"/><text x="182" y="615" fill="#1F140F" font-family="Manrope, Arial, sans-serif" font-size="22" font-weight="700">Book reveal</text><text x="405" y="615" fill="#F5D7C3" font-family="Manrope, Arial, sans-serif" font-size="22">See details</text><rect width="486" height="658" x="930" y="164" fill="rgba(255,255,255,0.06)" stroke="rgba(255,255,255,0.1)" rx="36"/><rect width="394" height="252" x="976" y="210" fill="rgba(255,255,255,0.08)" rx="28"/><rect width="182" height="118" x="976" y="500" fill="rgba(255,255,255,0.08)" rx="28"/><rect width="182" height="118" x="1188" y="500" fill="rgba(255,255,255,0.08)" rx="28"/><rect width="394" height="128" x="976" y="648" fill="rgba(255,255,255,0.08)" rx="28"/><text x="1012" y="570" fill="#FCE7D7" font-family="Manrope, Arial, sans-serif" font-size="22">Spatial launch</text><text x="1218" y="570" fill="#FCE7D7" font-family="Manrope, Arial, sans-serif" font-size="22">Visual system</text><text x="1012" y="720" fill="#FCE7D7" font-family="Manrope, Arial, sans-serif" font-size="32" font-weight="700">Hero sections crafted for attention, confidence, and momentum.</text><path stroke="#FFD6B8" stroke-linecap="round" stroke-width="8" d="M1014 324C1086 256 1160 248 1234 302C1269 328 1295 352 1344 352"/><path stroke="rgba(255,255,255,0.24)" stroke-linecap="round" stroke-width="2" d="M1008 382C1080 314 1154 306 1228 360C1263 386 1289 410 1338 410"/></svg>